<svg width="304" height="104" viewBox="0 0 304 104" fill="none" xmlns="http://www.w3.org/2000/svg">
<g clip-path="url(#clip0_565_289)">
<path d="M78.4438 75.9999L91.5158 14.4399H99.7999L112.948 75.9999H104.816L102.004 60.4959H89.4638L86.4998 75.9999H78.4438ZM90.6038 54.3399H100.864L95.6958 26.5999L90.6038 54.3399ZM118.51 75.9999V32.0719H126.642V36.4039C128.112 35.0359 129.733 33.8706 131.506 32.9079C133.28 31.9452 135.23 31.4639 137.358 31.4639C139.132 31.4639 140.474 31.9199 141.386 32.8319C142.349 33.7439 143.008 34.8839 143.362 36.2519C143.768 37.6199 143.97 39.0132 143.97 40.4319V75.9999H135.838V42.7879C135.838 41.2172 135.61 40.0012 135.154 39.1399C134.698 38.2786 133.761 37.8479 132.342 37.8479C131.43 37.8479 130.468 38.1266 129.454 38.6839C128.492 39.1906 127.554 39.8239 126.642 40.5839V75.9999H118.51ZM151.225 87.0199V80.7879C153.201 80.7879 154.771 80.6866 155.937 80.4839C157.102 80.3319 157.938 80.0026 158.445 79.4959C158.951 79.0399 159.205 78.3812 159.205 77.5199C159.205 77.0639 159.027 76.0506 158.673 74.4799C158.318 72.9092 157.938 71.2372 157.533 69.4639L148.717 32.0719H156.925L162.853 64.9039L168.553 32.0719H176.761L166.273 78.4319C165.817 80.5599 164.981 82.2319 163.765 83.4479C162.549 84.7146 160.978 85.6269 159.053 86.1839C157.178 86.7409 154.898 87.0199 152.213 87.0199H151.225ZM178.098 77.4439V71.2879C179.973 71.2879 181.493 71.1612 182.658 70.9079C183.824 70.6546 184.71 70.1986 185.318 69.5399C185.977 68.8812 186.433 67.9439 186.686 66.7279C186.94 65.4612 187.066 63.8652 187.066 61.9399V14.4399H195.578V62.0919C195.578 65.6386 195.198 68.5519 194.438 70.8319C193.678 73.0612 192.336 74.7332 190.41 75.8479C188.485 76.9119 185.749 77.4439 182.202 77.4439H178.098ZM216.614 76.6079C213.371 76.6079 210.812 75.9493 208.938 74.6319C207.063 73.3146 205.72 71.4399 204.91 69.0079C204.15 66.5759 203.77 63.7132 203.77 60.4199V47.6519C203.77 44.3586 204.15 41.4959 204.91 39.0639C205.72 36.6319 207.063 34.7572 208.938 33.4399C210.812 32.1226 213.371 31.4639 216.614 31.4639C219.856 31.4639 222.39 32.1226 224.214 33.4399C226.088 34.7572 227.406 36.6319 228.166 39.0639C228.976 41.4959 229.382 44.3586 229.382 47.6519V60.4199C229.382 63.7132 228.976 66.5759 228.166 69.0079C227.406 71.4399 226.088 73.3146 224.214 74.6319C222.39 75.9493 219.856 76.6079 216.614 76.6079ZM216.614 70.6039C218.184 70.6039 219.274 70.1479 219.882 69.2359C220.54 68.3239 220.92 67.1332 221.022 65.6639C221.174 64.1439 221.25 62.5732 221.25 60.9519V47.1959C221.25 45.5239 221.174 43.9532 221.022 42.4839C220.92 41.0146 220.54 39.8239 219.882 38.9119C219.274 37.9492 218.184 37.4679 216.614 37.4679C215.043 37.4679 213.928 37.9492 213.27 38.9119C212.611 39.8239 212.206 41.0146 212.054 42.4839C211.952 43.9532 211.902 45.5239 211.902 47.1959V60.9519C211.902 62.5732 211.952 64.1439 212.054 65.6639C212.206 67.1332 212.611 68.3239 213.27 69.2359C213.928 70.1479 215.043 70.6039 216.614 70.6039ZM252.547 76.6079C250.976 76.6079 249.558 76.2279 248.291 75.4679C247.075 74.6572 246.011 73.7706 245.099 72.8079V75.9999H236.967V14.4399H245.099V35.5679C246.062 34.4532 247.202 33.4906 248.519 32.6799C249.887 31.8692 251.508 31.4639 253.383 31.4639C255.663 31.4639 257.462 32.0719 258.779 33.2879C260.147 34.4532 261.16 35.9479 261.819 37.7719C262.478 39.5452 262.908 41.3692 263.111 43.2439C263.314 45.0679 263.415 46.6386 263.415 47.9559V58.5959C263.415 61.6866 263.111 64.6252 262.503 67.4119C261.895 70.1479 260.806 72.3772 259.235 74.0999C257.664 75.7719 255.435 76.6079 252.547 76.6079ZM250.875 70.2239C252.294 70.2239 253.307 69.7172 253.915 68.7039C254.523 67.6399 254.903 66.2212 255.055 64.4479C255.207 62.6746 255.283 60.7239 255.283 58.5959V47.9559C255.283 46.1319 255.182 44.4599 254.979 42.9399C254.776 41.3692 254.346 40.1279 253.687 39.2159C253.028 38.3039 251.99 37.8479 250.571 37.8479C249.507 37.8479 248.494 38.0759 247.531 38.5319C246.619 38.9879 245.808 39.4946 245.099 40.0519V68.2479C245.808 68.8052 246.644 69.2866 247.607 69.6919C248.62 70.0466 249.71 70.2239 250.875 70.2239ZM280.991 76.6079C277.394 76.6079 274.506 75.4932 272.327 73.2639C270.148 70.9839 268.907 67.9946 268.603 64.2959L275.367 62.2439C275.772 65.0306 276.456 67.1332 277.419 68.5519C278.382 69.9199 279.8 70.6039 281.675 70.6039C283.144 70.6039 284.259 70.1986 285.019 69.3879C285.779 68.5266 286.159 67.3866 286.159 65.9679C286.159 64.7012 285.88 63.5612 285.323 62.5479C284.766 61.5346 283.854 60.4959 282.587 59.4319L275.063 52.9719C273.543 51.6546 272.251 50.1852 271.187 48.5639C270.174 46.9426 269.667 44.8399 269.667 42.2559C269.667 39.9252 270.123 37.9746 271.035 36.4039C271.998 34.7826 273.315 33.5666 274.987 32.7559C276.71 31.8946 278.711 31.4639 280.991 31.4639C284.487 31.4639 287.147 32.6039 288.971 34.8839C290.846 37.1132 291.91 39.8239 292.163 43.0159L286.691 45.0679C286.488 43.5479 286.184 42.2306 285.779 41.1159C285.374 39.9506 284.816 39.0639 284.107 38.4559C283.398 37.7972 282.46 37.4679 281.295 37.4679C279.978 37.4679 278.914 37.9239 278.103 38.8359C277.343 39.6972 276.963 40.7359 276.963 41.9519C276.963 42.7119 277.115 43.4719 277.419 44.2319C277.774 44.9412 278.356 45.6506 279.167 46.3599L286.919 53.5039C287.983 54.4666 288.971 55.5052 289.883 56.6199C290.846 57.7346 291.631 59.0012 292.239 60.4199C292.847 61.8386 293.151 63.4852 293.151 65.3599C293.151 67.8426 292.644 69.9199 291.631 71.5919C290.618 73.2639 289.199 74.5306 287.375 75.3919C285.551 76.2026 283.423 76.6079 280.991 76.6079Z" fill="black"/>
<path d="M71.0816 14.5523H89.2109C89.2109 14.5523 91.1165 14.9341 92 15.7908L71.0816 14.5523ZM71.0816 14.5523V2.477C71.0816 2.477 70.8389 1.1487 70.2449 0.6192C69.8001 0.2228 68.8503 0 68.8503 0H35.381C35.381 0 34.4042 0.1944 33.9864 0.6192C33.4552 1.1593 33.4286 2.477 33.4286 2.477V14.5523M71.0816 14.5523H33.4286M71.0816 14.5523H62.9932M84.2104 74H14.1837C14.1837 74 12.7114 73.6322 11.9524 73.0711C10.8029 72.2214 10 69.9749 10 69.9749V39.3222M10 39.3222V18.2678C10 18.2678 10.5821 16.5472 11.3946 15.7908C12.2668 14.9787 14.1837 14.5523 14.1837 14.5523H33.4286M10 39.3222L11.9524 40.5607L14.1837 41.7992H47.932M33.4286 14.5523H41.2381M41.2381 14.5523V8.6695C41.2381 8.6695 41.4982 8.0412 41.7959 7.7406C42.1466 7.3865 42.9116 7.1213 42.9116 7.1213H61.0408C61.0408 7.1213 62.0107 7.3226 62.4354 7.7406C62.7369 8.0374 62.9932 8.6695 62.9932 8.6695V14.5523M41.2381 14.5523H62.9932M89.2109 41.7992H55.7415M55.7415 41.7992V46.7531H47.932V41.7992M55.7415 41.7992H47.932" stroke="black" stroke-width="3"/>
</g>
<defs>
<clipPath id="clip0_565_289">
<rect width="304" height="104" fill="white"/>
</clipPath>
</defs>
</svg>
