<svg width="98" height="84" viewBox="0 0 98 84" fill="none" xmlns="http://www.w3.org/2000/svg">
<path d="M28.1071 17.6892H6.45663C6.45663 17.6892 4.30014 18.1489 3.31888 19.0245C2.40486 19.84 1.75 21.695 1.75 21.695V44.3942M28.1071 17.6892V4.6705C28.1071 4.6705 28.1371 3.24987 28.7347 2.66763C29.2048 2.2096 30.3036 2 30.3036 2H67.9566C67.9566 2 69.0251 2.24018 69.5255 2.66763C70.1938 3.2384 70.4668 4.6705 70.4668 4.6705V17.6892M28.1071 17.6892H36.8929M70.4668 17.6892H90.8622C90.8622 17.6892 93.0012 18.1673 94 19.0245C94.9478 19.8378 95.6875 21.695 95.6875 21.695V44.3942M70.4668 17.6892H61.3673M53.2092 47.0647H90.8622L94 45.7295L95.6875 44.3942M53.2092 47.0647V52.4057H44.4235V47.0647M53.2092 47.0647H44.4235M44.4235 47.0647H6.45663L3.94643 45.7295L1.75 44.3942M1.75 44.3942V77.4417C1.75 77.4417 2.65327 79.8637 3.94643 80.7798C4.80029 81.3847 6.45663 81.7812 6.45663 81.7812H90.8622C90.8622 81.7812 93.0018 81.5653 94 80.7798C95.1682 79.8606 95.6875 77.4417 95.6875 77.4417V44.3942M36.8929 17.6892V11.3468C36.8929 11.3468 37.1854 10.6694 37.5204 10.3453C37.9149 9.96362 38.7755 9.67769 38.7755 9.67769H59.1709C59.1709 9.67769 60.262 9.89467 60.7398 10.3453C61.0791 10.6653 61.3673 11.3468 61.3673 11.3468V17.6892M36.8929 17.6892H61.3673" stroke="black" stroke-width="3"/>
</svg>
